<svg width="56" height="58" viewBox="0 0 56 58" fill="none" xmlns="http://www.w3.org/2000/svg">
<path d="M41.4596 0H14.5404C6.50994 0 0 6.74243 0 15.0596V42.9403C0 51.2576 6.50994 58 14.5404 58H41.4596C49.4901 58 56 51.2576 56 42.9403V15.0596C56 6.74243 49.4901 0 41.4596 0Z" fill="url(#paint0_linear_5674_2988)"/>
<path fill-rule="evenodd" clip-rule="evenodd" d="M19.748 10.6836H36.2533C42.2462 10.6836 45.6848 14.1941 45.6848 20.452V37.5468C45.6848 43.7538 42.2462 47.3152 36.2533 47.3152H19.748C13.755 47.3152 10.3164 43.7538 10.3164 37.5468V20.452C10.3164 14.245 13.7059 10.6836 19.748 10.6836V10.6836ZM28.0989 39.7345C28.8848 39.7345 29.4743 39.1239 29.5725 38.3608V19.6889C29.6217 19.1292 29.3761 18.5696 28.8848 18.2643C28.3936 17.959 27.8041 17.959 27.3129 18.2643C26.8217 18.5696 26.5761 19.1292 26.6252 19.6889V38.3608C26.7234 39.1239 27.362 39.7345 28.0989 39.7345ZM36.2533 39.7345C36.9901 39.7345 37.6287 39.1239 37.7269 38.3608V32.3573C37.7761 31.7468 37.5304 31.238 37.0392 30.9327C36.548 30.6275 35.9585 30.6275 35.4673 30.9327C34.9761 31.238 34.7304 31.7976 34.7796 32.3573V38.3608C34.8287 39.1239 35.4673 39.7345 36.2533 39.7345ZM21.3199 38.3608C21.2708 39.1239 20.6322 39.7345 19.8462 39.7345C19.1094 39.7345 18.4708 39.1239 18.3725 38.3608V25.6924C18.3234 25.1327 18.569 24.5731 19.0603 24.2678C19.5515 23.9625 20.141 23.9625 20.6322 24.2678C21.1234 24.5731 21.369 25.1327 21.3199 25.6924V38.3608Z" fill="#4EACDC"/>
<path fill-rule="evenodd" clip-rule="evenodd" d="M45.6848 37.5971C40.134 42.0743 28.7866 43.8042 20.3375 39.6322C20.1901 39.6831 19.9936 39.734 19.8462 39.734C19.1585 39.734 18.5199 39.2252 18.4217 38.5129C14.3936 35.9182 11.2989 31.6954 10.3164 25.4375V37.5463C10.3164 43.7533 13.7059 47.3147 19.748 47.3147H36.2533C42.2462 47.3147 45.6848 43.8042 45.6848 37.5971Z" fill="black" fill-opacity="0.1"/>
<defs>
<linearGradient id="paint0_linear_5674_2988" x1="27.5088" y1="-31.0351" x2="27.5088" y2="37.8526" gradientUnits="userSpaceOnUse">
<stop stop-color="#DBF2FF"/>
<stop offset="1" stop-color="white"/>
</linearGradient>
</defs>
</svg>
