<svg width="107" height="41" viewBox="0 0 107 41" fill="none" xmlns="http://www.w3.org/2000/svg">
<path fill-rule="evenodd" clip-rule="evenodd" d="M1.61377 16.3687L10.4266 29.447L1.61377 38.0381V16.3687Z" fill="#F15A23"/>
<path fill-rule="evenodd" clip-rule="evenodd" d="M5.16064 38.0378L11.7919 31.5117L16.3752 38.0378H5.16064Z" fill="#F15A23"/>
<path fill-rule="evenodd" clip-rule="evenodd" d="M1.61377 9.37038L3.91359 12.7928L13.3696 26.6935L16.4337 23.823C16.4337 23.823 13.89 20.2999 12.1819 16.3684C8.84256 8.68205 11.2068 3.89648 11.2068 3.89648H1.61377V9.37038Z" fill="#F15A23"/>
<path fill-rule="evenodd" clip-rule="evenodd" d="M14.7173 28.8394L17.8379 25.8071C17.8379 25.8071 20.8182 30.4225 24.2741 31.5119C28.8027 32.9394 30.8078 29.4469 30.8078 29.4469V38.0379H20.8609L23.1038 35.7566C23.1038 35.7566 21.9336 36.6744 19.0716 34.3422C17.3824 32.9658 14.7173 28.8394 14.7173 28.8394Z" fill="#F15A23"/>
<path fill-rule="evenodd" clip-rule="evenodd" d="M15.0044 3.87158C15.0044 3.87158 14.0089 5.46697 14.7175 9.37051C15.4749 13.5429 18.4872 17.9588 18.4802 17.86C18.4802 17.86 18.6738 13.4751 20.8611 10.9019C25.5234 5.41715 30.808 8.68218 30.808 8.68218V3.89661L15.0044 3.87158Z" fill="#F15A23"/>
<path fill-rule="evenodd" clip-rule="evenodd" d="M30.8078 14.4642C30.8078 14.4642 27.8594 11.4932 25.296 11.4932C22.0169 11.4932 20.2271 14.8236 20.2271 17.2394C20.2271 20.7583 21.6628 22.7135 23.1038 24.4088C25.1747 26.8451 27.6941 29.4726 30.8078 27.3578C30.8078 23.3553 30.8078 14.4642 30.8078 14.4642Z" fill="#F15A23"/>
<path fill-rule="evenodd" clip-rule="evenodd" d="M64.3857 4.22949H71.3433C71.3433 4.22949 77.5067 15.2083 80.5358 19.7443C83.5648 24.2803 86.8253 29.4469 86.8253 29.4469C86.8253 29.4469 86.8253 14.4642 86.8253 6.68819C86.8253 5.70526 84.6315 4.22949 84.6315 4.22949H92.6546C92.6546 4.22949 90.022 5.50189 90.022 6.68819C90.022 16.3686 90.022 39.7968 90.022 39.7968C90.022 39.7968 87.496 38.1489 84.6315 34.2331C81.4131 29.8335 69.9643 12.0711 69.9643 12.0711C69.9643 12.0711 69.9643 28.8395 69.9643 35.0775C69.9643 36.2558 72.1581 38.038 72.1581 38.038H64.3857C64.3857 38.038 66.5169 36.2413 66.5169 35.0775C66.5169 26.6936 66.5169 14.4642 66.5169 6.68819C66.5169 5.6434 64.3857 4.22949 64.3857 4.22949Z" fill="#005E6A"/>
<path fill-rule="evenodd" clip-rule="evenodd" d="M97.1479 4.22949H106.077C106.077 4.22949 103.68 5.56562 103.68 6.68819C103.68 14.4643 103.68 27.3579 103.68 35.0775C103.68 36.3043 106.077 38.038 106.077 38.038H97.1479C97.1479 38.038 99.3803 36.2648 99.3803 35.0775C99.3803 25.8072 99.3803 14.4643 99.3803 6.68819C99.3803 5.60893 97.1479 4.22949 97.1479 4.22949Z" fill="#005E6A"/>
<path fill-rule="evenodd" clip-rule="evenodd" d="M38.1143 4.22949C38.1143 4.22949 40.4293 5.58745 40.4293 6.68819C40.4293 14.4643 40.4293 25.8072 40.4293 35.0775C40.4293 36.2843 38.1143 38.038 38.1143 38.038C38.1143 38.038 49.6797 38.038 51.3431 38.038C52.17 38.038 61.4302 36.2566 61.4302 27.8578C61.4302 19.4591 54.237 18.6727 54.237 18.6727C54.237 18.6727 58.619 17.2395 58.619 11.4933C58.619 5.29943 52.17 4.22949 51.3431 4.22949C49.6249 4.22949 38.1143 4.22949 38.1143 4.22949ZM45.1421 18.1161V7.5465C45.1421 7.5465 48.9767 7.5465 50.5163 7.5465C51.3431 7.5465 54.237 8.68216 54.237 12.8956C54.237 16.3686 51.3431 18.1161 50.5163 18.1161C48.6419 18.1161 45.1421 18.1161 45.1421 18.1161ZM45.1421 20.8882C45.1421 20.8882 50.5163 20.8882 51.3431 20.8882C52.17 20.8882 57.0481 22.3788 57.0481 27.3579C57.0481 32.4342 52.17 34.2331 51.3431 34.2331C50.5163 34.2331 45.1421 34.2331 45.1421 34.2331V20.8882Z" fill="#005E6A"/>
</svg>
