<svg width="317" height="203" viewBox="0 0 317 203" fill="none" xmlns="http://www.w3.org/2000/svg">
<path d="M156.596 165.157C156.596 206.586 121.553 240.171 78.3262 240.171C35.0991 240.171 0.0566406 206.586 0.0566406 165.157C0.0566406 143.314 9.79765 123.652 25.3434 109.943C39.2831 97.6498 57.89 90.1434 78.3262 90.1434C121.553 90.1434 156.596 123.728 156.596 165.157Z" fill="white" fill-opacity="0.12"/>
<path d="M156.596 165.157C156.596 206.586 121.553 240.171 78.3262 240.171H304.218C260.991 240.171 225.948 206.586 225.948 165.157C225.948 159.865 226.52 154.701 227.608 149.719C223.921 150.229 220.152 150.493 216.319 150.493C178.328 150.493 146.659 124.552 139.544 90.1434H88.4881H78.3262C121.553 90.1434 156.596 123.728 156.596 165.157Z" fill="white" fill-opacity="0.12"/>
<path d="M139.544 90.1434C138.563 85.401 138.049 80.4977 138.049 75.4794C138.049 68.8887 138.936 62.4964 140.602 56.4063C134.061 67.652 114.482 90.1434 88.4881 90.1434H139.544Z" fill="white" fill-opacity="0.12"/>
<path fill-rule="evenodd" clip-rule="evenodd" d="M304.218 240.171C347.445 240.171 382.487 206.586 382.487 165.157C382.487 123.728 347.445 90.1434 304.218 90.1434C300.384 90.1434 296.615 90.4075 292.929 90.9178C286.257 121.481 260.176 145.21 227.608 149.719C226.52 154.701 225.948 159.865 225.948 165.157C225.948 206.586 260.991 240.171 304.218 240.171Z" fill="white" fill-opacity="0.12"/>
<path d="M292.929 90.9178C286.257 121.481 260.176 145.21 227.608 149.719C234.279 119.155 260.36 95.4268 292.929 90.9178Z" fill="white" fill-opacity="0.12"/>
<path d="M294.588 75.4794C294.588 34.0506 259.546 0.46582 216.319 0.46582C179.968 0.46582 149.406 24.2148 140.602 56.4063C138.936 62.4964 138.049 68.8887 138.049 75.4794C138.049 80.4977 138.563 85.401 139.544 90.1434C146.659 124.552 178.328 150.493 216.319 150.493C220.152 150.493 223.921 150.229 227.608 149.719C234.279 119.155 260.36 95.4268 292.929 90.9178C294.017 85.9354 294.588 80.7714 294.588 75.4794Z" fill="white" fill-opacity="0.12"/>
</svg>
