<svg width="166" height="144" viewBox="0 0 166 144" fill="none" xmlns="http://www.w3.org/2000/svg">
<path fill-rule="evenodd" clip-rule="evenodd" d="M139.419 1.34374C138.656 2.08189 134.957 5.61652 131.199 9.19868C127.441 12.7808 123.166 16.8746 121.698 18.2959C120.23 19.7173 117.06 22.7564 114.652 25.0499C112.245 27.3431 109.5 29.9681 108.553 30.8829C107.605 31.7977 106.726 32.5461 106.598 32.5461C106.471 32.5461 105.18 31.8384 103.73 30.9735C89.672 22.5866 75.747 18.1984 63.1968 18.2004C60.5753 18.2008 54.7474 18.6961 51.9635 19.155C49.1902 19.6122 42.7356 21.3215 41.0987 22.032C40.8638 22.1339 39.9991 22.4843 39.1771 22.8106C27.5315 27.4329 16.0608 37.1902 8.92852 48.5406C2.94751 58.0592 0.00429755 68.8169 2.7387e-05 81.1758C-0.00168068 85.7242 0.0749691 86.9061 0.663825 91.4352C2.07469 102.286 6.75415 112.758 14.2035 121.736C23.4812 132.918 35.2381 140.108 48.6428 142.796C53.9019 143.851 55.7238 144.008 62.663 144C71.7587 143.989 76.4525 143.311 84.4409 140.853C101.995 135.452 116.577 121.697 123.094 104.391C125.177 98.858 126.616 91.9937 127.02 85.6533C127.144 83.71 127.279 81.59 127.32 80.9422C127.42 79.3678 127.067 72.0455 126.737 68.8473L126.472 66.2816L128.405 64.2432C130.922 61.5894 134.783 57.577 139.431 52.7826C143.543 48.541 152.697 38.9862 155.228 36.2936C158.806 32.4864 165.672 24.7908 165.984 24.2364C166.143 23.9554 165.143 22.8663 160.86 18.6571C152.554 10.4927 141.329 -0.00663525 140.914 3.14634e-06C140.855 0.00107386 140.183 0.605597 139.419 1.34374ZM144.615 10.9713C146.63 12.7674 149.993 15.827 152.088 17.7704C154.184 19.7137 156.476 21.8399 157.183 22.4954C157.978 23.2327 158.439 23.8233 158.391 24.0439C158.349 24.2402 155.192 27.5592 151.376 31.4195C143.567 39.3182 135.205 47.8027 109.744 73.6614C82.6141 101.215 77.6223 106.279 68.1628 115.847L59.3771 124.734L56.8567 122.267C55.4703 120.91 51.2617 116.817 47.5039 113.171C39.0048 104.927 31.6123 97.7419 23.8045 90.1381C15.6468 82.1934 14.3034 80.8491 14.3055 80.6315C14.3115 80.0195 20.9584 72.5654 24.872 68.7817C27.527 66.215 32.6961 61.6435 33.1182 61.4887C33.3099 61.4185 34.709 62.704 43.4473 70.9795C48.943 76.184 51.2717 78.4256 55.4663 82.5483C57.5034 84.5505 59.2063 86.2238 59.2507 86.2666C59.4038 86.415 60.5439 85.3884 64.1576 81.848C66.1539 79.8923 69.0843 77.0354 70.6696 75.4996C72.2549 73.9638 75.0892 71.2114 76.9683 69.3833C80.4609 65.985 84.6655 61.9041 90.5316 56.2191C95.5679 51.3384 99.6768 47.3498 103.444 43.6858C108.726 38.5468 113.836 33.5869 117.001 30.5255C121.167 26.496 130.037 17.871 137.003 11.0759C138.903 9.22224 140.568 7.70569 140.704 7.70569C140.84 7.70569 142.599 9.17534 144.615 10.9713Z" fill="url(#paint0_linear_5610_5342)"/>
<defs>
<linearGradient id="paint0_linear_5610_5342" x1="83" y1="0" x2="83" y2="144" gradientUnits="userSpaceOnUse">
<stop stop-color="#9DBE16"/>
<stop offset="1" stop-color="#539401"/>
</linearGradient>
</defs>
</svg>
