<svg width="40" height="40" viewBox="0 0 40 40" fill="none" xmlns="http://www.w3.org/2000/svg">
<g clip-path="url(#clip0_5638_2940)">
<path d="M29.614 4H10.386C4.64996 4 0 8.64996 0 14.386V33.614C0 39.35 4.64996 44 10.386 44H29.614C35.35 44 40 39.35 40 33.614V14.386C40 8.64996 35.35 4 29.614 4Z" fill="url(#paint0_linear_5638_2940)"/>
<path fill-rule="evenodd" clip-rule="evenodd" d="M12.5611 14.5264H19.8945C22.9471 14.5264 25.0875 16.6316 25.0875 19.6492V28.3509C25.0875 31.3685 22.9471 33.4737 19.8945 33.4737H12.5611C9.50852 33.4737 7.36816 31.3685 7.36816 28.3509V19.6492C7.36816 16.6316 9.50852 14.5264 12.5611 14.5264ZM12.7015 17.2983H19.6138C20.2103 17.2983 20.6664 17.7895 20.6664 18.3509C20.6664 18.9474 20.1752 19.4036 19.6138 19.4036H12.7015C12.105 19.4036 11.6489 18.9123 11.6489 18.3509C11.6489 17.7544 12.1401 17.2983 12.7015 17.2983ZM30.0699 17.5439C30.6313 17.2632 31.2629 17.2983 31.7892 17.6141C32.3155 17.9299 32.6313 18.5264 32.6313 19.1579V28.8422C32.6313 29.4737 32.3155 30.0351 31.7892 30.386C31.5085 30.5615 31.1927 30.6667 30.8419 30.6667C30.5611 30.6667 30.3155 30.5965 30.0348 30.4562L28.1752 29.5088C27.4734 29.1579 27.0524 28.4562 27.0524 27.6843V20.3158C27.0524 19.5439 27.4734 18.8422 28.1752 18.4913L30.0348 17.5439H30.0699Z" fill="#BA377C"/>
<path fill-rule="evenodd" clip-rule="evenodd" d="M7.36816 24.3509C7.36816 27.3685 9.50852 29.4737 12.5611 29.4737H19.8945C21.5085 29.4737 22.8419 28.8772 23.7892 27.8948C16.8769 28.4211 9.05237 25.6141 7.40325 17.0176V24.3509H7.36816Z" fill="black" fill-opacity="0.1"/>
</g>
<defs>
<linearGradient id="paint0_linear_5638_2940" x1="19.6491" y1="-17.4035" x2="19.6491" y2="30.1053" gradientUnits="userSpaceOnUse">
<stop stop-color="#FFD0E9"/>
<stop offset="1" stop-color="white"/>
</linearGradient>
<clipPath id="clip0_5638_2940">
<rect width="40" height="40" fill="white"/>
</clipPath>
</defs>
</svg>
