<svg width="91" height="82" viewBox="0 0 91 82" fill="none" xmlns="http://www.w3.org/2000/svg">
<path fill-rule="evenodd" clip-rule="evenodd" d="M41.6314 1.94767C38.3367 4.00669 15.2941 18.5772 8.44482 22.9326C4.84331 25.2226 4.37094 25.5891 4.13541 26.2783C3.81573 27.2128 4.10764 28.3909 4.81099 29.0052C5.25863 29.3959 6.22266 29.4068 45.3153 29.4581C84.7081 29.5096 85.3724 29.5039 86.0543 29.1019C86.9773 28.5573 87.3673 27.3762 86.9892 26.2706C86.7481 25.5655 86.2811 25.2099 82.2461 22.6578C73.7437 17.2802 69.9496 14.8819 66.4925 12.6998C64.584 11.4952 60.5826 8.96105 57.6005 7.06821C46.8695 0.25743 46.4307 0 45.5547 0C44.9043 0 44.1428 0.377982 41.6314 1.94767ZM46.6046 5.69275C46.7478 5.83088 46.8649 6.15696 46.8649 6.41711C46.8649 6.79153 47.0445 6.9372 47.7233 7.11363C50.5449 7.84678 52.4294 11.1896 50.715 12.4202C50.2383 12.7622 50.0008 12.8078 49.5288 12.6477C48.9498 12.4512 48.742 12.1697 48.053 10.6486C47.6077 9.66595 46.5572 9.10023 45.5246 9.28713C44.1845 9.5297 43.2734 10.9433 43.6351 12.2187C43.9303 13.2587 44.6551 13.7658 46.8413 14.4623C49.3794 15.271 49.9405 15.5362 50.6748 16.2743C51.5129 17.1167 51.8531 18.0368 51.8531 19.4598C51.8531 21.8499 50.3176 23.7231 47.8951 24.2886C47.0538 24.4849 46.8649 24.6134 46.8649 24.9895C46.8649 25.5698 46.4773 25.9522 45.8889 25.9522C45.3047 25.9522 44.913 25.5707 44.913 25.0016C44.913 24.6548 44.7048 24.4945 43.9912 24.293C42.4859 23.8675 41.3158 23.0935 40.5988 22.0489C39.5192 20.4757 39.7371 19.1636 41.1469 18.7499C41.9291 18.5205 42.7004 19.0253 43.0964 20.0263C43.9446 22.1693 46.3051 22.8342 47.9584 21.3957C48.7953 20.6676 49.0322 19.4985 48.5008 18.7162C48.112 18.1433 47.4088 17.8041 44.6651 16.8656C41.7721 15.8761 40.368 14.2633 40.368 11.9297C40.368 9.83757 41.8155 7.87441 43.8828 7.16302C44.6607 6.89534 44.913 6.70258 44.913 6.37608C44.913 5.82188 45.3101 5.4416 45.8889 5.4416C46.1394 5.4416 46.4615 5.55461 46.6046 5.69275ZM12.8147 50.858V68.6478H16.387H19.9592L20.0197 55.5147C20.08 42.4346 20.0822 42.3781 20.5578 41.5202C21.2867 40.2054 21.9981 39.4882 23.1992 38.8574C26.0785 37.3452 29.3943 38.3097 31.1738 41.1768L31.7917 42.1724L31.8522 55.4101L31.9125 68.6478H35.8066H39.7007L39.7011 55.5518C39.7018 40.8329 39.6287 41.5303 41.3416 39.8771C42.554 38.7073 43.8516 38.2071 45.6721 38.2077C47.4344 38.2084 48.5277 38.6611 49.8099 39.9208C51.489 41.5704 51.4092 40.7963 51.4146 55.5147L51.4194 68.6478H55.3232H59.2271V55.6395V42.6313L59.7573 41.5495C61.9177 37.1427 67.9474 36.9819 70.4064 41.2655L71.047 42.3817L71.1075 55.5147L71.168 68.6478H74.7403H78.3125V50.858V33.0682H45.5636H12.8147V50.858ZM4.1829 72.4569C4.03304 72.6016 3.92265 73.2941 3.92265 74.0894C3.92265 74.8847 4.03304 75.5773 4.1829 75.7219C4.56157 76.0873 86.5657 76.0873 86.9443 75.7219C87.0942 75.5773 87.2046 74.8847 87.2046 74.0894C87.2046 73.2941 87.0942 72.6016 86.9443 72.4569C86.5657 72.0915 4.56157 72.0915 4.1829 72.4569ZM0.149149 78.4504C-0.0571035 78.7725 -0.0462582 81.6449 0.161947 81.8458C0.289472 81.9688 17.4662 82.0235 45.6833 81.9906L91 81.9379V80.1589V78.3799L45.6309 78.3272C20.6779 78.2981 0.211177 78.3535 0.149149 78.4504Z" fill="#858BA6"/>
</svg>
