<svg width="91" height="82" viewBox="0 0 91 82" fill="none" xmlns="http://www.w3.org/2000/svg">
<path fill-rule="evenodd" clip-rule="evenodd" d="M71.7476 24.4869H90.999C90.999 9.0298 81.7373 0 66.045 0H24.9539C9.26167 0 0 9.0298 0 24.2898V57.6093C0 72.8693 9.26167 81.8991 24.9539 81.8991H66.045C81.7373 81.8991 90.999 72.8693 90.999 57.6093V56.1898H71.7476C62.813 56.1898 55.57 49.1282 55.57 40.4172C55.57 31.7063 62.813 24.6446 71.7476 24.6446V24.4869ZM71.749 31.2643H87.603C89.4793 31.2643 91.0003 32.7473 91.0003 34.5766V46.0906C90.9785 47.911 89.4702 49.3815 87.603 49.4028H72.113C67.5898 49.4621 63.6346 46.4428 62.6086 42.1474C62.0949 39.481 62.8161 36.7295 64.5791 34.6304C66.3421 32.5313 68.9665 31.2992 71.749 31.2643ZM72.4388 43.3702H73.9352C75.8562 43.3702 77.4134 41.8519 77.4134 39.9791C77.4134 38.1062 75.8562 36.588 73.9352 36.588H72.4388C71.5201 36.5774 70.6352 36.9259 69.9818 37.5556C69.3283 38.1853 68.9605 39.0439 68.9606 39.9396C68.9605 41.819 70.5113 43.3486 72.4388 43.3702ZM21.5579 24.4849H47.2398C49.1608 24.4849 50.718 22.9667 50.718 21.0938C50.718 19.2209 49.1608 17.7027 47.2398 17.7027H21.5579C19.6527 17.7026 18.1019 19.1969 18.0797 21.0544C18.0796 22.9337 19.6304 24.4633 21.5579 24.4849Z" fill="url(#paint0_linear_10169_5643)"/>
<defs>
<linearGradient id="paint0_linear_10169_5643" x1="45.5002" y1="0" x2="45.5002" y2="81.8991" gradientUnits="userSpaceOnUse">
<stop stop-color="#9DBE16"/>
<stop offset="1" stop-color="#539401"/>
</linearGradient>
</defs>
</svg>
