<svg width="156" height="64" viewBox="0 0 156 64" fill="none" xmlns="http://www.w3.org/2000/svg">
<path fill-rule="evenodd" clip-rule="evenodd" d="M98.0882 53.4105C98.0882 53.2862 98.0894 53.1608 98.0931 53.0376C98.0894 53.1619 98.0882 53.2862 98.0882 53.4105ZM98.1102 52.618C98.5519 44.6422 105.611 38.3029 114.255 38.3029C122.342 38.3029 129.041 43.8519 130.234 51.0967C130.217 50.9929 130.198 50.8892 130.179 50.7865C138.711 49.3531 147.126 47.0609 155.345 43.7961C154.471 30.5358 146.283 24.3037 127.565 23.6845C114.75 23.2614 104.804 11.1461 95.7586 3.23423C91.911 -0.132144 87.6997 0.132422 81.1747 0.148387C69.2022 0.178037 57.2334 0.0731225 45.2597 0.0731225C33.9621 0.0731225 21.8371 -1.16646 16.3054 6.56183C12.4187 11.9911 8.61136 17.547 5.67773 23.4097L5.69604 23.3732C34.1793 38.9609 66.2832 50.4809 98.126 52.3773C98.1199 52.4572 98.115 52.537 98.1102 52.618ZM130.237 51.1229C130.256 51.2381 130.274 51.3544 130.29 51.4696C130.274 51.3533 130.257 51.2381 130.237 51.1229ZM130.295 51.5107C130.31 51.6281 130.325 51.7467 130.337 51.8653C130.324 51.7467 130.31 51.6281 130.295 51.5107ZM130.339 51.8767C130.352 51.9976 130.363 52.1185 130.373 52.2394C130.363 52.1173 130.351 51.9965 130.339 51.8767ZM130.374 52.2542C130.384 52.3751 130.392 52.4959 130.398 52.618C130.391 52.4959 130.384 52.3751 130.374 52.2542ZM22.2142 19.5096L50.0873 20.8244L50.1947 8.08537C46.7876 7.60299 33.6216 7.45816 30.7734 8.20396C26.0313 9.44583 23.7725 14.785 22.2142 19.5096ZM55.741 20.9681L85.9315 22.7517L86.7478 17.482C92.1245 17.2129 91.9622 18.7398 94.0392 21.6295C95.5268 23.7005 93.8696 22.9991 96.996 23.5032C98.342 23.7198 101.338 23.6959 102.864 23.7643C101.942 22.1085 88.5222 9.1653 87.0883 8.51985C83.608 6.95412 61.6717 7.90975 55.8374 7.86185L55.7422 20.9681H55.741Z" fill="#FF6600"/>
<path d="M24.2068 64.0002C30.4652 64.0002 35.5386 59.2592 35.5386 53.4108C35.5386 47.5624 30.4652 42.8213 24.2068 42.8213C17.9484 42.8213 12.875 47.5624 12.875 53.4108C12.875 59.2592 17.9484 64.0002 24.2068 64.0002Z" fill="#E55B00"/>
<path fill-rule="evenodd" clip-rule="evenodd" d="M114.254 42.8213C119.814 42.8213 124.439 46.5628 125.401 51.4995C117.98 52.4665 110.48 52.8064 102.955 52.592C103.403 47.1262 108.29 42.8224 114.254 42.8224V42.8213Z" fill="#FF6600"/>
<path fill-rule="evenodd" clip-rule="evenodd" d="M7.91981 53.4123C7.91981 45.0683 15.1575 38.3047 24.0865 38.3047C33.0155 38.3047 40.2532 45.0683 40.2532 53.4123C40.2532 53.7556 40.2397 54.0954 40.2153 54.433L98.1276 54.4239C98.1044 54.0897 98.091 53.7522 98.091 53.4123C98.091 53.0657 98.1032 52.7201 98.1276 52.3792C66.2848 50.4827 34.1797 38.9627 5.69762 23.375C2.76888 29.2194 0.707774 35.3683 0.30019 42.0007C-0.13424 49.0801 -1.04215 52.963 5.67566 54.4375H7.95886C7.93445 54.0989 7.92103 53.7567 7.92103 53.4123H7.91981Z" fill="#E55B00"/>
<path fill-rule="evenodd" clip-rule="evenodd" d="M130.178 50.7865C130.338 51.6384 130.421 52.5153 130.421 53.4105C130.421 53.7481 130.407 54.0833 130.384 54.4163L144.216 54.414C150.935 54.6387 155.077 54.8668 155.375 48.3758C155.449 46.7644 155.441 45.2375 155.345 43.7949C147.127 47.0598 138.711 49.3531 130.178 50.7865Z" fill="#E55B00"/>
<path fill-rule="evenodd" clip-rule="evenodd" d="M114.26 64.0019C120.519 64.0019 125.591 59.2602 125.591 53.4124C125.591 52.759 125.528 52.1204 125.407 51.5C117.985 52.467 110.485 52.8069 102.961 52.5925C102.939 52.8627 102.928 53.1364 102.928 53.4124C102.928 59.2614 108.002 64.0019 114.26 64.0019Z" fill="#E55B00"/>
</svg>
